<svg width="772" height="200" viewBox="0 0 772 200" fill="none" xmlns="http://www.w3.org/2000/svg">
    <path
        d="M243.048 104.194C243.048 111.554 237.082 117.52 229.722 117.52H209.738V82.5511H229.722C237.082 82.5511 243.048 88.5177 243.048 95.8777V104.194ZM259.62 96.6937C258.883 80.8177 245.915 68.1351 229.91 67.8657L193.063 67.8551V153.386H209.738V132.206H229.91C245.926 131.938 258.902 119.236 259.622 103.346C259.643 102.884 259.723 101.55 259.723 100.031C259.723 98.6244 259.643 97.1657 259.62 96.6937Z"
        fill="#fff" />
    <path fill-rule="evenodd" clip-rule="evenodd"
        d="M288.069 50.004C288.069 55.5293 283.59 60.0093 278.065 60.0093C272.54 60.0093 268.061 55.5293 268.061 50.004C268.061 44.4787 272.54 40 278.065 40C283.59 40 288.069 44.4787 288.069 50.004ZM286.402 132.213H269.728V67.8614H286.402V132.213Z"
        fill="#fff" />
    <path
        d="M335.327 67.8628H299.745V132.207H316.419V82.5508H343.673V132.215H360.347V92.8815C360.347 79.0642 349.145 67.8628 335.327 67.8628Z"
        fill="#fff" />
    <path
        d="M387.267 93.4914C388.237 84.6687 394.029 79.9807 403.078 79.7461C412.141 79.9807 417.666 84.3834 418.294 93.4914H387.267ZM435.127 100.026C435.127 97.7607 434.975 95.5767 434.658 93.4914C432.213 76.5141 420.015 65.862 402.733 65.862C383.337 65.862 370.35 79.2901 370.35 100.026C370.35 120.762 383.337 134.189 402.733 134.189C416.506 134.189 427.777 127.778 432.722 116.435L418.038 111.103C415.703 116.878 410.727 119.574 403.078 119.574C393.767 119.339 388.317 114.125 387.411 104.986H434.865C435.045 103.383 435.127 101.725 435.127 100.026Z"
        fill="#fff" />
    <path
        d="M477.629 118.192C465.901 117.929 460.415 111.989 460.415 99.6945C460.415 87.4825 465.845 81.4039 477.629 81.1279C485.241 81.3065 490.186 83.9039 492.755 89.0012L508.186 83.3932C502.869 72.3959 491.885 65.8625 477.615 65.8625C457.155 65.8625 443.465 79.2905 443.465 100.025C443.465 120.761 457.155 134.189 477.615 134.189C491.885 134.189 502.869 127.656 508.186 116.659L492.466 110.94C489.799 115.664 484.923 118.027 477.629 118.192Z"
        fill="#fff" />
    <path
        d="M547.901 118.194C536.179 117.928 530.689 111.991 530.689 99.6937C530.689 87.4764 536.115 81.3964 547.901 81.1257C559.686 81.3964 565.114 87.4764 565.114 99.6937C565.114 111.991 559.622 117.928 547.901 118.194ZM547.894 65.8617C527.434 65.8617 513.745 79.2897 513.745 100.026C513.745 120.762 527.434 134.19 547.894 134.19C568.354 134.19 582.045 120.762 582.045 100.026C582.045 79.2897 568.354 65.8617 547.894 65.8617Z"
        fill="#fff" />
    <path
        d="M627.632 67.846H592.05V132.19H608.724V82.534H635.978V132.198H652.652V92.866C652.652 79.0473 641.45 67.846 627.632 67.846Z"
        fill="#fff" />
    <path
        d="M679.573 93.4914C680.543 84.6687 686.335 79.9807 695.383 79.7461C704.445 79.9807 709.972 84.3834 710.599 93.4914H679.573ZM727.433 100.026C727.433 97.7607 727.281 95.5767 726.964 93.4914C724.519 76.5141 712.32 65.862 695.039 65.862C675.643 65.862 662.656 79.2901 662.656 100.026C662.656 120.762 675.643 134.189 695.039 134.189C708.811 134.189 720.083 127.778 725.028 116.435L710.344 111.103C708.008 116.878 703.033 119.574 695.383 119.574C686.073 119.339 680.623 114.125 679.717 104.986H727.171C727.351 103.383 727.433 101.725 727.433 100.026Z"
        fill="#fff" />
    <path
        d="M61.6387 58.8387L45.9413 88.2587C43.9827 91.9414 43 95.9814 43 100.028C43 104.075 43.9827 108.116 45.9413 111.797L61.6387 141.217C64.532 146.652 70.1907 150.045 76.3493 150.045H93.024V141.711H93.0173C89.9413 141.711 87.112 140.017 85.6653 137.3L69.9733 107.875C68.6613 105.421 68.008 102.728 68.008 100.028C68.008 97.3281 68.6613 94.6347 69.9733 92.1814L85.6653 62.7561C87.112 60.0387 89.9413 58.3441 93.0173 58.3441H93.024V50.0094H76.3493C70.1907 50.0094 64.532 53.4041 61.6387 58.8387Z"
        fill="#fff" />
    <path
        d="M156.772 88.2587L141.074 58.8387C138.18 53.4041 132.522 50.0094 126.364 50.0094H109.689V58.3441H109.696C112.772 58.3441 115.601 60.0387 117.048 62.7561L132.74 92.1814C134.05 94.6347 134.704 97.3281 134.704 100.028C134.704 102.728 134.05 105.421 132.74 107.875L117.048 137.3C115.601 140.017 112.772 141.711 109.696 141.711H109.689V150.045H126.364C132.522 150.045 138.18 146.652 141.074 141.217L156.772 111.797C158.73 108.116 159.713 104.075 159.713 100.028C159.713 95.9814 158.73 91.9414 156.772 88.2587Z"
        fill="#fff" />
</svg>